#!OML:ASF H:\BabyWalks\Project 1\Capture day 1\Session 1\baby.ASF
:FULLY-SPECIFIED
:DEGREES
770
root -34.7565 17.8004 -1.94282 -458.603 84.3422 -492.053
lowerback 29.2934 0.855039 2.7416
upperback 12.7227 3.03571 0.522756
thorax -1.69803 2.03774 -1.90123
lowerneck -10.5542 -0.883853 4.94496
upperneck -16.0437 -1.38466 -4.84393
head -3.54279 -0.480653 -2.51487
rclavicle -5.1684e-014 -5.86415e-015
rhumerus -1.39867 40.7268 -57.298
rradius 55.2527
rwrist 5.40195
rhand -24.8609 -7.85855
rfingers 7.12502
rthumb 1.64588 -37.8319
lclavicle -5.1684e-014 -5.86415e-015
lhumerus -9.46837 -43.836 58.9068
lradius 50.5125
lwrist 3.57438
lhand 0.814858 4.41019
lfingers 7.12502
lthumb 26.3706 32.5965
rfemur -42.3684 2.24512 12.2642
rtibia 16.1208
rfoot -5.8235 -23.6069
rtoes -7.93855
lfemur -53.957 4.51041 -12.9119
ltibia 31.6374
lfoot -13.944 1.54578
ltoes -9.35228
771
root -34.6809 17.8108 -1.97351 -460.144 84.3024 -492.659
lowerback 28.9211 0.826093 2.8688
upperback 12.4759 2.98668 0.445401
thorax -1.80024 2.00777 -2.0378
lowerneck -10.2427 -0.935876 5.24554
upperneck -16.3148 -1.45868 -4.7934
head -3.7053 -0.531799 -2.55821
rclavicle -4.96962e-014 3.04141e-014
rhumerus -4.07655 41.0263 -58.983
rradius 55.6046
rwrist 5.26752
rhand -23.8911 -7.93354
rfingers 7.12502
rthumb 2.58249 -37.8976
lclavicle -4.96962e-014 3.04141e-014
lhumerus -11.3269 -45.4847 59.4845
lradius 51.3654
lwrist 3.37977
lhand 1.15559 3.99328
lfingers 7.12502
lthumb 26.6968 32.1303
rfemur -40.9862 2.6901 12.0475
rtibia 16.0861
rfoot -6.22911 -23.9615
rtoes -7.76678
lfemur -52.7384 4.44418 -13.0306
ltibia 31.8001
lfoot -14.3741 1.44992
ltoes -9.495
772
root -34.6027 17.8207 -2.00519 -461.534 84.2652 -493.095
lowerback 28.5658 0.796598 3.00047
upperback 12.2307 2.9377 0.353352
thorax -1.90557 1.97784 -2.19355
lowerneck -9.90859 -0.993657 5.54985
upperneck -16.6132 -1.53532 -4.73296
head -3.88369 -0.584983 -2.59931
rclavicle -5.04913e-014 -3.08116e-014
rhumerus -6.74081 41.1787 -60.7268
rradius 55.9525
rwrist 5.13604
rhand -22.9329 -7.91194
rfingers 7.12502
rthumb 3.50786 -37.8628
lclavicle -5.04913e-014 -3.08116e-014
lhumerus -13.2713 -47.0166 60.1474
lradius 52.3016
lwrist 3.02653
lhand 1.36045 3.53236
lfingers 7.12502
lthumb 26.8928 31.6393
rfemur -39.5352 3.10075 11.8907
rtibia 15.9527
rfoot -6.55171 -24.2674
rtoes -7.66559
lfemur -51.483 4.37267 -13.131
ltibia 31.9651
lfoot -14.8121 1.39248
ltoes -9.5722
773
root -34.5221 17.8301 -2.0378 -462.715 84.2371 -493.309
lowerback 28.2084 0.776697 3.10301
upperback 11.9991 2.89469 0.271496
thorax -1.99485 1.94967 -2.3225
lowerneck -9.40358 -1.05892 5.84017
upperneck -17.3823 -1.64997 -4.83405
head -3.78044 -0.630293 -2.48465
rclavicle -5.24792e-014 -1.05356e-014
rhumerus -9.33688 41.205 -62.4483
rradius 56.3021
rwrist 4.98901
rhand -21.9733 -7.79779
rfingers 7.12502
rthumb 4.4345 -37.7314
lclavicle -5.24792e-014 -1.05356e-014
lhumerus -15.0834 -48.4463 60.8506
lradius 53.1756
lwrist 2.697
lhand 1.47976 3.0915
lfingers 7.12502
lthumb 27.0069 31.1808
rfemur -38.0597 3.4809 11.7833
rtibia 15.7946
rfoot -6.83559 -24.5204
rtoes -7.60157
lfemur -50.196 4.30301 -13.2208
ltibia 32.1284
lfoot -15.2667 1.37522
ltoes -9.56723
774
root -34.4394 17.8389 -2.07144 -463.713 84.2233 -493.327
lowerback 27.8663 0.759465 3.19062
upperback 11.7718 2.85194 0.187464
thorax -2.08572 1.92081 -2.44581
lowerneck -9.03036 -1.11791 6.08676
upperneck -17.7385 -1.7169 -4.77614
head -3.95444 -0.67453 -2.50857
rclavicle -4.65156e-014 1.37161e-014
rhumerus -11.8813 41.0914 -64.1817
rradius 56.6468
rwrist 4.85237
rhand -21.0084 -7.60265
rfingers 7.12502
rthumb 5.36625 -37.5147
lclavicle -4.65156e-014 1.37161e-014
lhumerus -16.8522 -49.745 61.6126
lradius 54.0434
lwrist 2.45391
lhand 1.58676 2.77028
lfingers 7.12502
lthumb 27.1093 30.8437
rfemur -36.5694 3.82579 11.7163
rtibia 15.633
rfoot -7.08757 -24.7258
rtoes -7.62378
lfemur -48.8685 4.23477 -13.3073
ltibia 32.275
lfoot -15.7467 1.39338
ltoes -9.49303
775
root -34.3547 17.8472 -2.10604 -464.549 84.2328 -493.167
lowerback 27.5407 0.752852 3.24547
upperback 11.5519 2.81616 0.110379
thorax -2.17627 1.89398 -2.54514
lowerneck -8.64322 -1.17496 6.30197
upperneck -18.0902 -1.77684 -4.72359
head -4.1292 -0.713964 -2.52874
rclavicle -3.37934e-014 -1.78906e-015
rhumerus -14.3501 40.8657 -65.8598
rradius 57.0062
rwrist 4.6991
rhand -20.0754 -7.38619
rfingers 7.12502
rthumb 6.26699 -37.2735
lclavicle -3.37934e-014 -1.78906e-015
lhumerus -18.5574 -50.9036 62.4347
lradius 54.8964
lwrist 2.37793
lhand 1.69538 2.55255
lfingers 7.12502
lthumb 27.2132 30.6097
rfemur -35.0657 4.1251 11.6813
rtibia 15.4764
rfoot -7.30367 -24.871
rtoes -7.73147
lfemur -47.4902 4.16462 -13.3969
ltibia 32.3959
lfoot -16.2508 1.44784
ltoes -9.33724
776
root -34.2683 17.8553 -2.1415 -465.263 84.2707 -492.87
lowerback 27.2422 0.751848 3.27068
upperback 11.3342 2.78176 0.0332981
thorax -2.27719 1.86649 -2.62896
lowerneck -8.25301 -1.22748 6.48146
upperneck -18.4131 -1.82635 -4.66696
head -4.29532 -0.747462 -2.54135
rclavicle 2.24627e-014 1.93815e-014
rhumerus -16.7485 40.5144 -67.514
rradius 57.3583
rwrist 4.58793
rhand -19.1556 -7.16471
rfingers 7.12502
rthumb 7.15499 -37.0238
lclavicle 2.24627e-014 1.93815e-014
lhumerus -20.2032 -51.908 63.3032
lradius 55.7351
lwrist 2.50271
lhand 1.7886 2.40055
lfingers 7.12502
lthumb 27.3024 30.4437
rfemur -33.5561 4.39543 11.6552
rtibia 15.3357
rfoot -7.48968 -24.9746
rtoes -7.88787
lfemur -46.0604 4.09947 -13.5038
ltibia 32.481
lfoot -16.7678 1.52932
ltoes -9.12694
777
root -34.1803 17.863 -2.17758 -465.882 84.3381 -492.466
lowerback 26.9725 0.758716 3.26428
upperback 11.1197 2.75163 -0.0423674
thorax -2.3883 1.83987 -2.69542
lowerneck -7.86835 -1.27588 6.63256
upperneck -18.6933 -1.8685 -4.6119
head -4.4472 -0.776953 -2.54926
rclavicle -4.41302e-014 -4.88016e-014
rhumerus -19.0672 40.0515 -69.1099
rradius 57.7205
rwrist 4.505
rhand -18.2646 -6.97947
rfingers 7.12502
rthumb 8.01492 -36.8075
lclavicle -4.41302e-014 -4.88016e-014
lhumerus -21.7892 -52.7528 64.2086
lradius 56.5591
lwrist 2.82046
lhand 1.92577 2.33562
lfingers 7.12502
lthumb 27.4336 30.3581
rfemur -32.0466 4.64734 11.627
rtibia 15.2253
rfoot -7.68382 -25.0509
rtoes -8.0851
lfemur -44.5772 4.04573 -13.6343
ltibia 32.5226
lfoot -17.2903 1.62801
ltoes -8.87953
778
root -34.0909 17.8705 -2.21397 -466.462 84.4419 -492.015
lowerback 26.7325 0.774696 3.21835
upperback 10.9059 2.72524 -0.119716
thorax -2.51335 1.81366 -2.74335
lowerneck -7.49616 -1.32028 6.75819
upperneck -18.9194 -1.90426 -4.55411
head -4.5802 -0.803409 -2.55153
rclavicle -1.78906e-015 1.86858e-014
rhumerus -21.2904 39.4978 -70.6185
rradius 58.1007
rwrist 4.41639
rhand -17.3686 -6.83501
rfingers 7.12502
rthumb 8.87965 -36.6282
lclavicle -1.78906e-015 1.86858e-014
lhumerus -23.317 -53.4259 65.137
lradius 57.3727
lwrist 3.28651
lhand 2.09083 2.31688
lfingers 7.12502
lthumb 27.5915 30.3142
rfemur -30.5515 4.87781 11.5843
rtibia 15.1591
rfoot -7.88666 -25.103
rtoes -8.33196
lfemur -43.0447 3.99777 -13.7923
ltibia 32.5152
lfoot -17.8119 1.73304
ltoes -8.60091
